<svg width="110" height="32" viewBox="0 0 110 32" fill="none" xmlns="http://www.w3.org/2000/svg">
<g filter="url(#filter0_d)">
<path d="M56.064 12.0964H52.8647V20.9695H51.5591V12.0964H48.3667V11.0164H56.064V12.0964ZM59.728 21.1062C58.7254 21.1062 57.9097 20.7781 57.2808 20.1218C56.6519 19.461 56.3374 18.5792 56.3374 17.4763V17.2439C56.3374 16.5102 56.4764 15.8562 56.7544 15.282C57.0369 14.7032 57.4289 14.252 57.9302 13.9285C58.436 13.6003 58.9829 13.4363 59.5708 13.4363C60.5324 13.4363 61.2798 13.753 61.813 14.3865C62.3462 15.0199 62.6128 15.9268 62.6128 17.1072V17.6335H57.6021C57.6203 18.3627 57.8322 18.9529 58.2378 19.4041C58.6479 19.8507 59.1675 20.074 59.7964 20.074C60.243 20.074 60.6213 19.9828 60.9312 19.8005C61.241 19.6182 61.5122 19.3767 61.7446 19.0759L62.5171 19.6775C61.8973 20.63 60.9676 21.1062 59.728 21.1062ZM59.5708 14.4753C59.0604 14.4753 58.632 14.6622 58.2856 15.0359C57.9393 15.405 57.7251 15.9246 57.6431 16.5945H61.3481V16.4988C61.3117 15.8562 61.1385 15.3595 60.8286 15.0085C60.5187 14.6531 60.0994 14.4753 59.5708 14.4753ZM65.4565 20.9695H64.1919V10.4695H65.4565V20.9695ZM70.5562 21.1062C69.5535 21.1062 68.7378 20.7781 68.1089 20.1218C67.48 19.461 67.1655 18.5792 67.1655 17.4763V17.2439C67.1655 16.5102 67.3045 15.8562 67.5825 15.282C67.8651 14.7032 68.257 14.252 68.7583 13.9285C69.2642 13.6003 69.811 13.4363 70.3989 13.4363C71.3605 13.4363 72.1079 13.753 72.6411 14.3865C73.1743 15.0199 73.4409 15.9268 73.4409 17.1072V17.6335H68.4302C68.4484 18.3627 68.6603 18.9529 69.0659 19.4041C69.4761 19.8507 69.9956 20.074 70.6245 20.074C71.0711 20.074 71.4494 19.9828 71.7593 19.8005C72.0692 19.6182 72.3403 19.3767 72.5728 19.0759L73.3452 19.6775C72.7254 20.63 71.7957 21.1062 70.5562 21.1062ZM70.3989 14.4753C69.8885 14.4753 69.4601 14.6622 69.1138 15.0359C68.7674 15.405 68.5532 15.9246 68.4712 16.5945H72.1763V16.4988C72.1398 15.8562 71.9666 15.3595 71.6567 15.0085C71.3468 14.6531 70.9276 14.4753 70.3989 14.4753ZM74.6099 17.2097C74.6099 16.0567 74.8765 15.1407 75.4097 14.4617C75.9429 13.7781 76.6493 13.4363 77.5288 13.4363C78.4312 13.4363 79.1353 13.7553 79.6411 14.3933L79.7026 13.573H80.8579V20.7917C80.8579 21.7488 80.5731 22.503 80.0034 23.0544C79.4383 23.6059 78.6772 23.8816 77.7202 23.8816C77.187 23.8816 76.6652 23.7677 76.1548 23.5398C75.6444 23.3119 75.2547 22.9998 74.9858 22.6033L75.6421 21.8445C76.1844 22.5144 76.8475 22.8494 77.6313 22.8494C78.2466 22.8494 78.7251 22.6762 79.0669 22.3298C79.4132 21.9835 79.5864 21.4958 79.5864 20.8669V20.2312C79.0806 20.8145 78.3901 21.1062 77.5151 21.1062C76.6493 21.1062 75.9474 20.7576 75.4097 20.0603C74.8765 19.363 74.6099 18.4128 74.6099 17.2097ZM75.8813 17.3533C75.8813 18.1873 76.0522 18.8435 76.394 19.322C76.7358 19.796 77.2144 20.033 77.8296 20.033C78.6271 20.033 79.2127 19.6707 79.5864 18.946V15.5691C79.1991 14.8627 78.618 14.5095 77.8433 14.5095C77.228 14.5095 76.7472 14.7488 76.4009 15.2273C76.0545 15.7058 75.8813 16.4145 75.8813 17.3533ZM86.3472 14.7078C86.1558 14.6759 85.9484 14.6599 85.7251 14.6599C84.8957 14.6599 84.3328 15.0131 84.0366 15.7195V20.9695H82.772V13.573H84.0024L84.0229 14.4275C84.4377 13.7667 85.0256 13.4363 85.7866 13.4363C86.0327 13.4363 86.2196 13.4682 86.3472 13.532V14.7078ZM91.8091 20.9695C91.7362 20.8236 91.6769 20.5639 91.6313 20.1902C91.0435 20.8009 90.3416 21.1062 89.5259 21.1062C88.7967 21.1062 88.1974 20.9011 87.728 20.491C87.2632 20.0763 87.0308 19.5522 87.0308 18.9187C87.0308 18.1485 87.3224 17.5515 87.9058 17.1277C88.4937 16.6993 89.3185 16.4851 90.3804 16.4851H91.6108V15.9041C91.6108 15.462 91.4787 15.1111 91.2144 14.8513C90.95 14.587 90.5604 14.4548 90.0454 14.4548C89.5942 14.4548 89.216 14.5688 88.9106 14.7966C88.6053 15.0245 88.4526 15.3002 88.4526 15.6238H87.1812C87.1812 15.2546 87.311 14.8992 87.5708 14.5574C87.8351 14.211 88.1906 13.9376 88.6372 13.7371C89.0884 13.5365 89.5828 13.4363 90.1206 13.4363C90.9728 13.4363 91.6405 13.6505 92.1235 14.0789C92.6066 14.5027 92.8573 15.0883 92.8755 15.8357V19.24C92.8755 19.919 92.9621 20.4591 93.1353 20.8601V20.9695H91.8091ZM89.7104 20.0056C90.1069 20.0056 90.4829 19.9031 90.8384 19.698C91.1938 19.4929 91.4513 19.2263 91.6108 18.8982V17.3806H90.6196C89.0701 17.3806 88.2954 17.8341 88.2954 18.741C88.2954 19.1375 88.4276 19.4473 88.6919 19.6707C88.9562 19.894 89.2957 20.0056 89.7104 20.0056ZM96.0474 13.573L96.0815 14.3933C96.6239 13.7553 97.3553 13.4363 98.2759 13.4363C99.3104 13.4363 100.014 13.8328 100.388 14.6257C100.634 14.2703 100.953 13.9832 101.345 13.7644C101.742 13.5457 102.209 13.4363 102.747 13.4363C104.369 13.4363 105.194 14.2953 105.221 16.0134V20.9695H103.957V16.0886C103.957 15.56 103.836 15.1658 103.594 14.906C103.353 14.6417 102.947 14.5095 102.377 14.5095C101.908 14.5095 101.518 14.6508 101.208 14.9333C100.899 15.2113 100.719 15.5873 100.668 16.0613V20.9695H99.397V16.1228C99.397 15.0473 98.8706 14.5095 97.8179 14.5095C96.9884 14.5095 96.4211 14.8627 96.1157 15.5691V20.9695H94.8511V13.573H96.0474Z" fill="black"/>
</g>
<path d="M15.792 31.5732C24.3524 31.5732 31.292 24.6337 31.292 16.0732C31.292 7.51283 24.3524 0.573242 15.792 0.573242C7.23158 0.573242 0.291992 7.51283 0.291992 16.0732C0.291992 24.6337 7.23158 31.5732 15.792 31.5732Z" fill="#039BE5"/>
<path d="M7.85318 15.7374L23.7868 9.97531C24.5263 9.72472 25.1722 10.1445 24.9325 11.1933L24.9339 11.1921L22.2209 23.18C22.0199 24.0299 21.4814 24.2366 20.7281 23.8362L16.5967 20.9803L14.6039 22.7809C14.3836 22.9876 14.1977 23.1619 13.7708 23.1619L14.0641 19.2185L21.721 12.7304C22.0543 12.4553 21.6467 12.3003 21.2074 12.5741L11.745 18.1619L7.66589 16.9684C6.78038 16.7049 6.7611 16.1378 7.85318 15.7374Z" fill="white"/>
<defs>
<filter id="filter0_d" x="44.3667" y="9.46948" width="64.8545" height="21.4121" filterUnits="userSpaceOnUse" color-interpolation-filters="sRGB">
<feFlood flood-opacity="0" result="BackgroundImageFix"/>
<feColorMatrix in="SourceAlpha" type="matrix" values="0 0 0 0 0 0 0 0 0 0 0 0 0 0 0 0 0 0 127 0"/>
<feOffset dy="3"/>
<feGaussianBlur stdDeviation="2"/>
<feColorMatrix type="matrix" values="0 0 0 0 0 0 0 0 0 0 0 0 0 0 0 0 0 0 0.25 0"/>
<feBlend mode="normal" in2="BackgroundImageFix" result="effect1_dropShadow"/>
<feBlend mode="normal" in="SourceGraphic" in2="effect1_dropShadow" result="shape"/>
</filter>
</defs>
</svg>
