<svg width="81" height="34" viewBox="0 0 81 34" fill="none" xmlns="http://www.w3.org/2000/svg">
<g filter="url(#filter0_d)">
<path d="M48.8595 21.2263L51.7032 13.0164H53.1388L49.4474 22.9695H48.2853L44.6007 13.0164H46.0294L48.8595 21.2263ZM55.6544 22.9695H54.3898V15.573H55.6544V22.9695ZM54.2872 13.6111C54.2872 13.406 54.3488 13.2328 54.4718 13.0916C54.5994 12.9503 54.7863 12.8796 55.0323 12.8796C55.2784 12.8796 55.4653 12.9503 55.5929 13.0916C55.7205 13.2328 55.7843 13.406 55.7843 13.6111C55.7843 13.8162 55.7205 13.9871 55.5929 14.1238C55.4653 14.2605 55.2784 14.3289 55.0323 14.3289C54.7863 14.3289 54.5994 14.2605 54.4718 14.1238C54.3488 13.9871 54.2872 13.8162 54.2872 13.6111ZM63.9464 19.3533C63.9464 20.4835 63.6866 21.3927 63.1671 22.0808C62.6476 22.7644 61.9503 23.1062 61.0753 23.1062C60.1411 23.1062 59.4187 22.7758 58.9083 22.115L58.8468 22.9695H57.6847V12.4695H58.9493V16.3865C59.4598 15.753 60.1639 15.4363 61.0616 15.4363C61.9594 15.4363 62.6635 15.7758 63.174 16.4548C63.6889 17.1339 63.9464 18.0636 63.9464 19.2439V19.3533ZM62.6818 19.2097C62.6818 18.3484 62.5154 17.683 62.1827 17.2136C61.8501 16.7442 61.3715 16.5095 60.7472 16.5095C59.9132 16.5095 59.3139 16.8969 58.9493 17.6716V20.8708C59.3367 21.6456 59.9406 22.033 60.7609 22.033C61.367 22.033 61.8387 21.7983 62.1759 21.3289C62.5131 20.8595 62.6818 20.1531 62.6818 19.2097ZM68.6154 23.1062C67.6128 23.1062 66.797 22.7781 66.1681 22.1218C65.5392 21.461 65.2247 20.5792 65.2247 19.4763V19.2439C65.2247 18.5102 65.3637 17.8562 65.6417 17.282C65.9243 16.7032 66.3162 16.252 66.8175 15.9285C67.3234 15.6003 67.8702 15.4363 68.4581 15.4363C69.4197 15.4363 70.1671 15.753 70.7003 16.3865C71.2335 17.0199 71.5001 17.9268 71.5001 19.1072V19.6335H66.4894C66.5076 20.3627 66.7195 20.9529 67.1251 21.4041C67.5353 21.8507 68.0548 22.074 68.6837 22.074C69.1303 22.074 69.5086 21.9828 69.8185 21.8005C70.1284 21.6182 70.3995 21.3767 70.632 21.0759L71.4044 21.6775C70.7846 22.63 69.8549 23.1062 68.6154 23.1062ZM68.4581 16.4753C67.9477 16.4753 67.5193 16.6622 67.173 17.0359C66.8266 17.405 66.6124 17.9246 66.5304 18.5945H70.2355V18.4988C70.199 17.8562 70.0258 17.3595 69.7159 17.0085C69.406 16.6531 68.9868 16.4753 68.4581 16.4753ZM76.545 16.7078C76.3536 16.6759 76.1463 16.6599 75.923 16.6599C75.0935 16.6599 74.5307 17.0131 74.2345 17.7195V22.9695H72.9698V15.573H74.2003L74.2208 16.4275C74.6355 15.7667 75.2234 15.4363 75.9845 15.4363C76.2306 15.4363 76.4174 15.4682 76.545 15.532V16.7078Z" fill="black"/>
</g>
<ellipse cx="15.9081" cy="16.8559" rx="15.5012" ry="16.2045" fill="#7C509A"/>
<path d="M20.7551 9.19598C17.801 8.60622 14.7332 8.60622 11.779 9.19598C10.4724 9.49085 8.82488 11.1422 8.54082 12.4396C8.02952 14.9755 8.02952 17.5705 8.54082 20.1064C8.88169 21.4038 10.5292 23.0552 11.779 23.35C11.8358 23.35 11.8927 23.409 11.8927 23.468V27.1834C11.8927 27.3603 12.1199 27.4783 12.2335 27.3014L13.9378 25.4731C13.9378 25.4731 15.3013 23.9988 15.5285 23.7629C15.5285 23.7629 15.5854 23.7039 15.6422 23.7039C17.3465 23.7629 19.1076 23.5859 20.812 23.2911C22.1186 22.9962 23.7661 21.3449 24.0502 20.0474C24.5615 17.5115 24.5615 14.9166 24.0502 12.3806C23.7093 11.1422 22.0618 9.49085 20.7551 9.19598ZM20.812 20.2833C20.5279 20.8731 20.187 21.3449 19.6189 21.6397C19.4485 21.6987 19.2781 21.7577 19.1076 21.8167C18.8804 21.7577 18.71 21.6987 18.5395 21.6397C16.7216 20.8731 15.0173 19.8115 13.6538 18.2782C12.9153 17.3935 12.2903 16.391 11.779 15.3294C11.5518 14.7986 11.3245 14.3268 11.1541 13.796C10.9837 13.3242 11.2677 12.8524 11.5518 12.4986C11.8358 12.1447 12.1767 11.9088 12.5744 11.7319C12.8584 11.555 13.1425 11.6729 13.3697 11.9088C13.8242 12.4986 14.2787 13.0883 14.6196 13.7371C14.8468 14.1499 14.79 14.6217 14.3923 14.9166C14.2787 14.9755 14.2219 15.0345 14.1083 15.1525C14.0515 15.2114 13.9378 15.2704 13.881 15.3884C13.7674 15.5653 13.7674 15.7422 13.8242 15.9192C14.2787 17.2756 15.1309 18.3371 16.4375 18.9269C16.6648 19.0448 16.8352 19.1038 17.1193 19.1038C17.5169 19.0448 17.6874 18.573 17.9714 18.3371C18.2555 18.1012 18.5963 18.1012 18.9372 18.2782C19.2212 18.4551 19.5053 18.691 19.8462 18.9269C20.1302 19.1628 20.4143 19.3397 20.6983 19.5756C20.8688 19.6936 20.9256 19.9884 20.812 20.2833ZM18.4259 15.8602C18.3123 15.8602 18.3691 15.8602 18.4259 15.8602C18.1987 15.8602 18.1418 15.7422 18.085 15.5653C18.085 15.4474 18.085 15.2704 18.0282 15.1525C17.9714 14.9166 17.8578 14.6807 17.6305 14.5037C17.5169 14.4448 17.4033 14.3858 17.2897 14.3268C17.1192 14.2678 17.0056 14.2678 16.8352 14.2678C16.6648 14.2089 16.608 14.0909 16.608 13.914C16.608 13.796 16.7784 13.6781 16.892 13.6781C17.801 13.7371 18.4827 14.2678 18.5963 15.3884C18.5963 15.4473 18.5963 15.5653 18.5963 15.6243C18.5963 15.7422 18.5395 15.8602 18.4259 15.8602ZM17.8578 13.2653C17.5737 13.1473 17.2897 13.0294 16.9488 12.9704C16.8352 12.9704 16.6648 12.9114 16.5511 12.9114C16.3807 12.9114 16.2671 12.7935 16.3239 12.6165C16.3239 12.4396 16.4375 12.3217 16.608 12.3806C17.1761 12.4396 17.6874 12.5576 18.1987 12.7935C19.2213 13.3242 19.7894 14.2089 19.9598 15.3884C19.9598 15.4473 19.9598 15.5063 19.9598 15.5653C19.9598 15.6833 19.9598 15.8012 19.9598 15.9781C19.9598 16.0371 19.9598 16.0961 19.9598 16.1551C19.903 16.391 19.5053 16.4499 19.4485 16.1551C19.4485 16.0961 19.3917 15.9781 19.3917 15.9192C19.3917 15.3884 19.2781 14.8576 19.0508 14.3858C18.71 13.855 18.3123 13.5012 17.8578 13.2653ZM20.9256 16.8038C20.7551 16.8038 20.6415 16.6269 20.6415 16.4499C20.6415 16.0961 20.5847 15.7422 20.5279 15.3884C20.3007 13.5012 18.8236 11.9678 17.0624 11.6729C16.7784 11.614 16.4943 11.614 16.2671 11.555C16.0967 11.555 15.8694 11.555 15.8126 11.3191C15.7558 11.1422 15.9262 10.9652 16.0967 10.9652C16.1535 10.9652 16.2103 10.9652 16.2103 10.9652C18.5395 11.0242 16.3239 10.9652 16.2103 10.9652C18.5963 11.0242 20.5847 12.6755 20.9824 15.1525C21.0392 15.5653 21.096 15.9781 21.096 16.4499C21.2096 16.6269 21.096 16.8038 20.9256 16.8038Z" fill="white"/>
<defs>
<filter id="filter0_d" x="40.6007" y="11.4695" width="39.9443" height="18.6367" filterUnits="userSpaceOnUse" color-interpolation-filters="sRGB">
<feFlood flood-opacity="0" result="BackgroundImageFix"/>
<feColorMatrix in="SourceAlpha" type="matrix" values="0 0 0 0 0 0 0 0 0 0 0 0 0 0 0 0 0 0 127 0"/>
<feOffset dy="3"/>
<feGaussianBlur stdDeviation="2"/>
<feColorMatrix type="matrix" values="0 0 0 0 0 0 0 0 0 0 0 0 0 0 0 0 0 0 0.25 0"/>
<feBlend mode="normal" in2="BackgroundImageFix" result="effect1_dropShadow"/>
<feBlend mode="normal" in="SourceGraphic" in2="effect1_dropShadow" result="shape"/>
</filter>
</defs>
</svg>
